<?xml version="1.0" encoding="utf-8"?>
<!-- Generator: Adobe Illustrator 22.0.1, SVG Export Plug-In . SVG Version: 6.00 Build 0)  -->
<svg version="1.1" id="Isolation_Mode" xmlns="http://www.w3.org/2000/svg" xmlns:xlink="http://www.w3.org/1999/xlink" x="0px"
	 y="0px" viewBox="0 0 55.1 63.2" style="enable-background:new 0 0 55.1 63.2;" xml:space="preserve">
<style type="text/css">
	.st0{fill:#C9C9C9;}
	.st1{fill:#ED145B;}
</style>
<path class="st0" d="M55.1,53.6c0,5.2-4.3,9.5-9.5,9.5h-36c-5.2,0-9.5-4.3-9.5-9.5v-44c0-5.2,4.3-9.5,9.5-9.5h36
	c5.2,0,9.5,4.3,9.5,9.5V53.6z M52.1,9.6c0-3.6-2.9-6.5-6.5-6.5h-36C6,3.1,3.1,6,3.1,9.6v44c0,3.6,2.9,6.5,6.5,6.5h36
	c3.6,0,6.5-2.9,6.5-6.5V9.6z"/>
<path class="st0" d="M4.7,20.1h-2c-0.8,0-1.5-0.7-1.5-1.5c0-0.8,0.7-1.5,1.5-1.5h2c0.8,0,1.5,0.7,1.5,1.5
	C6.2,19.4,5.5,20.1,4.7,20.1"/>
<path class="st0" d="M51.7,20.1h-47c-0.8,0-1.5-0.7-1.5-1.5c0-0.8,0.7-1.5,1.5-1.5h47c0.8,0,1.5,0.7,1.5,1.5
	C53.2,19.4,52.5,20.1,51.7,20.1"/>
<path class="st0" d="M53.7,20.1h-2c-0.8,0-1.5-0.7-1.5-1.5c0-0.8,0.7-1.5,1.5-1.5h2c0.8,0,1.5,0.7,1.5,1.5
	C55.2,19.4,54.5,20.1,53.7,20.1"/>
<path class="st1" d="M16.9,11.3c0,1.4-1.1,2.6-2.6,2.6c-1.4,0-2.6-1.1-2.6-2.6c0-1.4,1.1-2.6,2.6-2.6C15.8,8.7,16.9,9.8,16.9,11.3"
	/>
<path class="st1" d="M26.1,11.3c0,1.4-1.1,2.6-2.6,2.6c-1.4,0-2.6-1.1-2.6-2.6c0-1.4,1.1-2.6,2.6-2.6C25,8.7,26.1,9.8,26.1,11.3"/>
<path class="st1" d="M34.3,11.3c0,1.4-1.1,2.6-2.6,2.6c-1.4,0-2.6-1.1-2.6-2.6c0-1.4,1.1-2.6,2.6-2.6C33.2,8.7,34.3,9.8,34.3,11.3"
	/>
<path class="st1" d="M37.6,45.5c-0.5,0-1-0.2-1.2-0.7c-0.5-0.7-0.3-1.6,0.4-2.1l7.7-5.2l-7.5-3.8c-0.7-0.4-1-1.3-0.7-2
	c0.4-0.7,1.3-1,2-0.7l7.7,4c0.9,0.5,1.5,1.3,1.5,2.3s-0.4,1.9-1.1,2.5l-8,5.4C38.2,45.5,37.9,45.5,37.6,45.5"/>
<path class="st1" d="M20.4,49.5c-0.3,0-0.6-0.1-0.8-0.3l-7.9-5.4c-0.8-0.6-1.3-1.6-1.2-2.5c0.1-1,0.7-1.8,1.5-2.3l7.7-4
	c0.7-0.4,1.6-0.1,2,0.7c0.4,0.7,0.1,1.6-0.7,2l-7.5,3.8l7.7,5.2c0.7,0.5,0.9,1.4,0.4,2.1C21.3,49.3,20.9,49.5,20.4,49.5"/>
<path class="st1" d="M26.1,52.4c-0.1,0-0.3,0-0.4-0.1c-0.8-0.2-1.2-1.1-1-1.9l6.6-21.1c0.2-0.8,1.1-1.2,1.9-1c0.8,0.2,1.2,1.1,1,1.9
	l-6.6,21.1C27.4,52,26.8,52.4,26.1,52.4"/>
</svg>
