<?xml version="1.0" encoding="utf-8"?>
<!-- Generator: Adobe Illustrator 22.0.1, SVG Export Plug-In . SVG Version: 6.00 Build 0)  -->
<svg version="1.1" id="Isolation_Mode" xmlns="http://www.w3.org/2000/svg" xmlns:xlink="http://www.w3.org/1999/xlink" x="0px"
	 y="0px" viewBox="0 0 42.8 62.7" style="enable-background:new 0 0 42.8 62.7;" xml:space="preserve">
<style type="text/css">
	.st0{fill:#C9C9C9;}
	.st1{fill:#ED145B;}
</style>
<path class="st0" d="M10.7,36.8c-4.2,0-7.8-2.2-9.1-5.5c-1.1-2.9-1.5-5.3-1.5-8.6c0-6.1,5.2-20.2,5.7-21.8v0c0,0,0,0,0,0
	c0,0,0,0,0,0c0,0,0,0,0,0h0c0,0,0,0,0-0.1C6.2,0,7.1-0.3,7.8,0c0.8,0.3,1.1,1.2,0.9,1.9c0,0,0,0,0,0c0,0.2-1,3.5,3.6,12
	c1.4,2.7,3.3,5.6,5.4,8.7c0.9,1.3,2.5,4.2,2.5,6.3C20.2,33.3,15.9,36.8,10.7,36.8 M6.5,8.2C4.9,13,3.1,19.3,3.1,22.6
	c0,3,0.3,5,1.3,7.6c0.8,2.1,3.4,3.6,6.3,3.6c3.6,0,6.5-2.2,6.5-4.8c0-0.9-0.9-3-2-4.6c-2.3-3.2-4.1-6.2-5.6-9
	C8.1,12.5,7.1,10.1,6.5,8.2"/>
<path class="st1" d="M12.3,47.1c-0.9-1.3-1.6-2.4-2.1-3.3c-1.9-3.6-1.4-5-1.4-5s-2.1,5.7-2.1,8c0,1.2,0.1,2,0.5,3
	c0.4,1,1.5,1.7,2.9,1.7c1.7,0,3-1.1,3-2.4C13.2,48.6,12.7,47.6,12.3,47.1"/>
<path class="st0" d="M36.8,62.9L36.8,62.9c-0.4,0-0.8,0-1.2-0.1c-13.3-2.8-18.9-12.2-21-17.6c-0.9-2.3-0.4-4.9,1.4-6.6
	c1.2-1.2,2.7-1.8,4.3-1.8c2.2,0,4.3,1.2,5.4,3.2c2.1,3.8,6,8.9,13.3,11.7c1.8,0.7,3.1,2.2,3.6,4.2c0.4,1.9-0.2,3.9-1.6,5.3
	C39.8,62.2,38.3,62.9,36.8,62.9 M20.3,39.8c-0.8,0-1.6,0.3-2.2,0.9c-0.9,0.9-1.2,2.2-0.7,3.4c1.9,4.8,6.9,13.2,18.8,15.8
	c0.9,0.2,1.9-0.1,2.6-0.8c0.7-0.7,1-1.7,0.8-2.6c-0.2-0.9-0.8-1.7-1.7-2c-8.1-3.1-12.5-8.8-14.9-13.1C22.4,40.4,21.4,39.8,20.3,39.8
	"/>
</svg>
