<?xml version="1.0" encoding="utf-8"?>
<!-- Generator: Adobe Illustrator 22.0.1, SVG Export Plug-In . SVG Version: 6.00 Build 0)  -->
<svg version="1.1" id="Isolation_Mode" xmlns="http://www.w3.org/2000/svg" xmlns:xlink="http://www.w3.org/1999/xlink" x="0px"
	 y="0px" viewBox="0 0 63 58.2" style="enable-background:new 0 0 63 58.2;" xml:space="preserve">
<style type="text/css">
	.st0{fill:#C9C9C9;}
	.st1{fill:#ED145B;}
</style>
<path class="st0" d="M51.6,41H15.1c-0.7,0-1.3-0.5-1.5-1.1l-4.9-20c-0.1-0.4,0-0.9,0.3-1.3c0.3-0.4,0.7-0.6,1.2-0.6h11.2
	c0.8,0,1.5,0.7,1.5,1.5c0,0.8-0.7,1.5-1.5,1.5h-9.3l4.2,17h34.4l8.2-17H48.5c-0.8,0-1.5-0.7-1.5-1.5c0-0.8,0.7-1.5,1.5-1.5h12.7
	c0.5,0,1,0.3,1.3,0.7c0.3,0.4,0.3,1,0.1,1.4l-9.6,20C52.7,40.7,52.2,41,51.6,41"/>
<path class="st0" d="M61,52h-3.5c-0.8,0-1.5-0.7-1.5-1.5c0-0.8,0.7-1.5,1.5-1.5h2.4v-8h-43l1.4,8h2.2c0.8,0,1.5,0.7,1.5,1.5
	c0,0.8-0.7,1.5-1.5,1.5H17c-0.7,0-1.4-0.5-1.5-1.2l-1.9-11c-0.1-0.4,0-0.9,0.3-1.2c0.3-0.3,0.7-0.5,1.1-0.5H61
	c0.8,0,1.9,0.7,1.9,1.5v11C62.9,51.3,61.8,52,61,52"/>
<path class="st0" d="M43.5,52h-10c-0.8,0-1.5-0.7-1.5-1.5c0-0.8,0.7-1.5,1.5-1.5h10c0.8,0,1.5,0.7,1.5,1.5C45,51.3,44.3,52,43.5,52"
	/>
<path class="st0" d="M50.4,58.1c-4,0-7.3-3.3-7.3-7.3s3.3-7.3,7.3-7.3c4,0,7.3,3.3,7.3,7.3S54.4,58.1,50.4,58.1 M50.4,46.6
	c-2.3,0-4.3,1.9-4.3,4.3c0,2.4,1.9,4.3,4.3,4.3c2.3,0,4.3-1.9,4.3-4.3C54.6,48.5,52.7,46.6,50.4,46.6"/>
<path class="st0" d="M27.3,58.1c-4,0-7.3-3.3-7.3-7.3s3.3-7.3,7.3-7.3s7.3,3.3,7.3,7.3S31.3,58.1,27.3,58.1 M27.3,46.6
	c-2.4,0-4.3,1.9-4.3,4.3c0,2.4,1.9,4.3,4.3,4.3c2.3,0,4.3-1.9,4.3-4.3C31.5,48.5,29.6,46.6,27.3,46.6"/>
<path class="st0" d="M17,51.4c-0.7,0-1.3-0.5-1.5-1.1L6,10.8c0-0.1,0-0.2,0-0.4c0-0.7-0.7-1.2-1.5-1.2C3.6,9.2,3,9.9,3,10.8
	c0,0.5,0.3,1,0.7,1.3c0.7,0.5,0.9,1.4,0.4,2.1c-0.5,0.7-1.4,0.9-2.1,0.4C0.7,13.7,0,12.3,0,10.8c0-2.5,2-4.6,4.5-4.6
	c2.4,0,4.4,1.8,4.5,4l9.6,39.3c0.2,0.8-0.3,1.6-1.1,1.8C17.3,51.4,17.2,51.4,17,51.4"/>
<path class="st1" d="M35.7,31.4L35.7,31.4c-1.4,0-2.7-0.7-3.5-1.9L25.5,19c-0.9-1.3-0.9-3.2,0-4.8c0.7-1.4,2-2.2,3.4-2.2h2.1V2.7
	C30.9,1.3,32,0,33.3,0h6c0.4,0,2.6,0.1,2.6,2.7V12h0.7c1.4,0,2.7,0.8,3.4,2.3c0.8,1.6,0.8,3.5-0.2,4.8l-7,10.7
	C38.1,30.8,36.9,31.4,35.7,31.4 M28.8,15c-0.3,0-0.6,0.3-0.7,0.6c-0.3,0.6-0.4,1.4-0.1,1.8l6.7,10.4c0.3,0.4,0.7,0.5,1,0.5
	c0.3,0,0.5-0.1,0.7-0.3l7-10.7c0.3-0.4,0.3-1.1,0-1.7c-0.2-0.3-0.5-0.6-0.8-0.6h-3.7V3h-5.4c0,0,0.4,0,0.4,0v12H28.8z"/>
</svg>
