<?xml version="1.0" encoding="utf-8"?>
<!-- Generator: Adobe Illustrator 22.0.1, SVG Export Plug-In . SVG Version: 6.00 Build 0)  -->
<svg version="1.1" id="Isolation_Mode" xmlns="http://www.w3.org/2000/svg" xmlns:xlink="http://www.w3.org/1999/xlink" x="0px"
	 y="0px" viewBox="0 0 63.1 45.5" style="enable-background:new 0 0 63.1 45.5;" xml:space="preserve">
<style type="text/css">
	.st0{fill:#C9C9C9;}
	.st1{fill:#ED145B;}
</style>
<path class="st0" d="M58.3,39.4c-0.8,0-1.5-0.7-1.5-1.5c0-14-11.4-25.3-25.3-25.3c-14,0-25.3,11.4-25.3,25.3c0,0.8-0.7,1.5-1.5,1.5
	c-0.8,0-1.5-0.7-1.5-1.5c0-15.6,12.7-28.3,28.3-28.3c15.6,0,28.3,12.7,28.3,28.3C59.8,38.7,59.1,39.4,58.3,39.4"/>
<path class="st0" d="M26.6,7.5h-16C9.7,7.5,9.1,6.9,9.1,6c0-0.8,0.7-1.5,1.5-1.5h16c0.8,0,1.5,0.7,1.5,1.5
	C28.1,6.9,27.4,7.5,26.6,7.5"/>
<path class="st0" d="M50.6,7.5h-15c-0.8,0-1.5-0.7-1.5-1.5c0-0.8,0.7-1.5,1.5-1.5h15c0.8,0,1.5,0.7,1.5,1.5
	C52.1,6.9,51.4,7.5,50.6,7.5"/>
<path class="st1" d="M30.8,11.1c-3.1,0-5.5-2.5-5.5-5.5S27.7,0,30.8,0c3,0,5.5,2.5,5.5,5.5S33.8,11.1,30.8,11.1 M30.8,3
	c-1.4,0-2.5,1.1-2.5,2.5c0,1.4,1.1,2.5,2.5,2.5c1.4,0,2.5-1.1,2.5-2.5C33.3,4.1,32.2,3,30.8,3"/>
<path class="st1" d="M63,44c0,0.8-0.7,1.5-1.5,1.5h-6c-0.8,0-1.5-0.7-1.5-1.5v-6c0-0.8,0.7-1.5,1.5-1.5h6c0.8,0,1.5,0.7,1.5,1.5V44z
	 M57,42.5h3v-3h-3V42.5z"/>
<path class="st1" d="M60,10c0,0.8-0.7,1.5-1.5,1.5h-6c-0.8,0-1.5-0.7-1.5-1.5V3c0-0.8,0.7-1.5,1.5-1.5h6C59.3,1.5,60,2.2,60,3V10z
	 M54,8.5h3v-4h-3V8.5z"/>
<path class="st1" d="M12,10c0,0.8-0.7,1.5-1.5,1.5h-6C3.7,11.5,3,10.9,3,10V3c0-0.8,0.7-1.5,1.5-1.5h6C11.3,1.5,12,2.2,12,3V10z
	 M6,8.5h3v-4H6V8.5z"/>
<path class="st1" d="M9,44c0,0.8-0.7,1.5-1.5,1.5h-6C0.7,45.5,0,44.9,0,44v-6c0-0.8,0.7-1.5,1.5-1.5h6C8.3,36.5,9,37.2,9,38V44z
	 M3,42.5h3v-3H3V42.5z"/>
</svg>
