<?xml version="1.0" encoding="utf-8"?>
<!-- Generator: Adobe Illustrator 22.0.1, SVG Export Plug-In . SVG Version: 6.00 Build 0)  -->
<svg version="1.1" id="Isolation_Mode" xmlns="http://www.w3.org/2000/svg" xmlns:xlink="http://www.w3.org/1999/xlink" x="0px"
	 y="0px" viewBox="0 0 62.1 62.9" style="enable-background:new 0 0 62.1 62.9;" xml:space="preserve">
<style type="text/css">
	.st0{fill:#C9C9C9;}
	.st1{fill:#ED145B;}
</style>
<path class="st0" d="M2.3,56.7c-0.3,0-0.7-0.1-1-0.3c-0.6-0.5-0.7-1.5-0.2-2.1l15.8-19.2c0.7-0.8,1.7-1.3,2.8-1.3
	c1.1,0,2.1,0.4,2.8,1.1l13.5,13.9c0.2,0.2,0.5,0.2,0.6,0.2c0.1,0,0.4-0.1,0.6-0.4l7.6-15.2c0.6-1.3,1.9-2,3.3-2.1
	c1.4,0,2.7,0.7,3.4,2l9.7,17.8c0.4,0.7,0.1,1.6-0.6,2c-0.7,0.4-1.6,0.1-2-0.6l-9.7-17.8c-0.2-0.4-0.5-0.4-0.7-0.4
	c-0.1,0-0.5,0-0.6,0.4L39.8,50c-0.5,1.1-1.6,1.8-2.8,2c-1.2,0.2-2.4-0.2-3.3-1.1L20.3,37c-0.2-0.2-0.5-0.2-0.6-0.2
	c-0.1,0-0.4,0-0.5,0.3L3.4,56.2C3.1,56.5,2.7,56.7,2.3,56.7"/>
<path class="st1" d="M46.5,48.7c0,0-0.1,0-0.1,0c-1.5-0.1-2.9-1-3.4-2.5c0-0.1-0.1-0.2-0.1-0.3l-3.7-21.5C39,24.1,38.8,24,38.6,24
	c-0.1,0-0.5,0-0.7,0.3L22.4,44.2c-1.2,1.5-3.3,1.9-5,0.8L1.3,34c-0.7-0.5-0.9-1.4-0.4-2.1c0.5-0.7,1.4-0.9,2.1-0.4l16.1,11
	c0.3,0.2,0.7,0.1,1-0.2l15.6-19.9c0.8-1.1,2.2-1.6,3.5-1.4c1.3,0.2,2.5,1.2,2.9,2.4c0,0.1,0.1,0.2,0.1,0.2l3.7,21.5
	c0.2,0.3,0.5,0.4,0.6,0.4c0.1,0,0.5,0,0.7-0.4l11.2-27.3c0.3-0.8,1.2-1.1,2-0.8c0.8,0.3,1.1,1.2,0.8,2L49.9,46.4
	C49.3,47.8,48,48.7,46.5,48.7"/>
<path class="st0" d="M60.6,62.7H10.1c-6,0-10.1-4.3-10.1-10v-51c0-0.8,0.7-1.5,1.5-1.5s1.5,0.7,1.5,1.5v51c0,4,2.8,7,7.1,7h50.5
	c0.8,0,1.5,0.7,1.5,1.5C62.1,62,61.5,62.7,60.6,62.7"/>
</svg>
