<?xml version="1.0" encoding="utf-8"?>
<!-- Generator: Adobe Illustrator 22.0.1, SVG Export Plug-In . SVG Version: 6.00 Build 0)  -->
<svg version="1.1" id="Isolation_Mode" xmlns="http://www.w3.org/2000/svg" xmlns:xlink="http://www.w3.org/1999/xlink" x="0px"
	 y="0px" viewBox="0 0 63.1 53" style="enable-background:new 0 0 63.1 53;" xml:space="preserve">
<style type="text/css">
	.st0{fill:#C9C9C9;}
	.st1{fill:#ED145B;}
</style>
<path class="st0" d="M42,8.5c0,0.8-0.7,1.5-1.5,1.5h-19C20.7,10,20,9.3,20,8.5v-7C20,0.6,20.7,0,21.5,0h19C41.3,0,42,0.6,42,1.5V8.5
	z M23,7h16V3H23V7z"/>
<path class="st0" d="M63,43.5c0,5.2-4.3,9.5-9.5,9.5h-44C4.3,53,0,48.7,0,43.5v-27C0,11.2,4.3,7,9.5,7h44c5.2,0,9.5,4.3,9.5,9.5
	V43.5z M60,16.5c0-3.6-2.9-6.5-6.5-6.5h-44C5.9,10,3,12.9,3,16.5v27C3,47.1,5.9,50,9.5,50h44c3.6,0,6.5-2.9,6.5-6.5V16.5z"/>
<path class="st1" d="M31,43.6c-7.1,0-12.9-5.8-12.9-12.9c0-7.1,5.8-12.9,12.9-12.9c7.1,0,12.9,5.8,12.9,12.9
	C43.9,37.9,38.1,43.6,31,43.6 M31,20.9c-5.4,0-9.9,4.4-9.9,9.9c0,5.4,4.4,9.9,9.9,9.9c5.4,0,9.9-4.4,9.9-9.9
	C40.9,25.3,36.5,20.9,31,20.9"/>
<path class="st1" d="M13.1,16.8c0,1.5-1.2,2.8-2.8,2.8c-1.5,0-2.8-1.2-2.8-2.8c0-1.5,1.2-2.8,2.8-2.8C11.9,14.1,13.1,15.3,13.1,16.8
	"/>
<path class="st0" d="M54.5,52.5c-0.8,0-1.5-0.7-1.5-1.5V4h-5v4c0,0.8-0.7,1.5-1.5,1.5C45.7,9.5,45,8.8,45,8V2.5
	C45,1.6,45.2,1,46.1,1h8C54.9,1,56,1.6,56,2.5V51C56,51.8,55.3,52.5,54.5,52.5"/>
</svg>
