<?xml version="1.0" encoding="utf-8"?>
<!-- Generator: Adobe Illustrator 22.0.1, SVG Export Plug-In . SVG Version: 6.00 Build 0)  -->
<svg version="1.1" id="Isolation_Mode" xmlns="http://www.w3.org/2000/svg" xmlns:xlink="http://www.w3.org/1999/xlink" x="0px"
	 y="0px" viewBox="0 0 62.8 63.2" style="enable-background:new 0 0 62.8 63.2;" xml:space="preserve">
<style type="text/css">
	.st0{fill:#C9C9C9;}
	.st1{fill:#ED145B;}
</style>
<path class="st0" d="M62.9,36.7c0,5.2-4.3,9.5-9.5,9.5h-44c-5.2,0-9.5-4.3-9.5-9.5v-27c0-5.2,4.3-9.5,9.5-9.5h44
	c5.2,0,9.5,4.3,9.5,9.5V36.7z M59.9,9.7c0-3.6-2.9-6.5-6.5-6.5h-44c-3.6,0-6.5,2.9-6.5,6.5v27c0,3.6,2.9,6.5,6.5,6.5h44
	c3.6,0,6.5-2.9,6.5-6.5V9.7z"/>
<path class="st0" d="M52.1,46.2H10.7C4.6,46.2,0,41.2,0,34.7c0-0.8,0.7-1.5,1.5-1.5h59.8c0.8,0,1.5,0.7,1.5,1.5
	C62.8,41.2,58.2,46.2,52.1,46.2 M3.1,36.2c0.6,4.1,3.6,7,7.6,7h41.4c4,0,7-2.9,7.6-7H3.1z"/>
<path class="st1" d="M34.2,30.4c-0.4,0-0.8-0.1-1.1-0.4c-0.6-0.6-0.6-1.5,0-2.1l8.3-8.3c0.6-0.6,1.5-0.6,2.1,0
	c0.6,0.6,0.6,1.5,0,2.1L35.3,30C35,30.3,34.6,30.4,34.2,30.4"/>
<path class="st1" d="M21.3,31.8c-0.4,0-0.8-0.1-1.1-0.4c-0.6-0.6-0.6-1.5,0-2.1l18.1-18.1c0.6-0.6,1.5-0.6,2.1,0
	c0.6,0.6,0.6,1.5,0,2.1L22.3,31.4C22,31.7,21.7,31.8,21.3,31.8"/>
<path class="st0" d="M31.4,54.7c-0.8,0-1.5-0.7-1.5-1.5v-8c0-0.8,0.7-1.5,1.5-1.5c0.8,0,1.5,0.7,1.5,1.5v8
	C32.9,54,32.2,54.7,31.4,54.7"/>
<path class="st0" d="M40.9,63.2c-0.8,0-1.5-0.7-1.5-1.5c0-3.6-3.7-6.5-8.2-6.5c-4.5,0-8.2,2.9-8.2,6.5c0,0.8-0.7,1.5-1.5,1.5
	c-0.8,0-1.5-0.7-1.5-1.5c0-5.2,5-9.5,11.2-9.5c6.2,0,11.2,4.2,11.2,9.5C42.4,62.6,41.7,63.2,40.9,63.2"/>
</svg>
