<?xml version="1.0" encoding="utf-8"?>
<!-- Generator: Adobe Illustrator 22.0.1, SVG Export Plug-In . SVG Version: 6.00 Build 0)  -->
<svg version="1.1" id="Isolation_Mode" xmlns="http://www.w3.org/2000/svg" xmlns:xlink="http://www.w3.org/1999/xlink" x="0px"
	 y="0px" viewBox="0 0 42.9 63.4" style="enable-background:new 0 0 42.9 63.4;" xml:space="preserve">
<style type="text/css">
	.st0{fill:#C9C9C9;}
	.st1{fill:#ED145B;}
</style>
<path class="st0" d="M42.9,53.8c0,5.2-4.3,9.5-9.5,9.5h-24c-5.2,0-9.5-4.3-9.5-9.5v-44c0-5.2,4.3-9.5,9.5-9.5h24
	c5.2,0,9.5,4.3,9.5,9.5V53.8z M39.9,9.8c0-3.6-2.9-6.5-6.5-6.5h-24c-3.6,0-6.5,2.9-6.5,6.5v44c0,3.6,2.9,6.5,6.5,6.5h24
	c3.6,0,6.5-2.9,6.5-6.5V9.8z"/>
<path class="st0" d="M42.9,52.8c0,0.8-0.7,1.5-1.5,1.5h-40c-0.8,0-1.5-0.7-1.5-1.5v-43c0-0.8,0.7-1.5,1.5-1.5h40
	c0.8,0,1.5,0.7,1.5,1.5V52.8z M2.9,51.3h37v-40h-37V51.3z"/>
<path class="st1" d="M23.8,6c0,1.1-0.9,2-2,2s-2-0.9-2-2s0.9-2,2-2S23.8,4.9,23.8,6"/>
<path class="st1" d="M24.5,58.3h-5c-0.8,0-1.5-0.7-1.5-1.5c0-0.8,0.7-1.5,1.5-1.5h5c0.8,0,1.5,0.7,1.5,1.5
	C26,57.6,25.3,58.3,24.5,58.3"/>
<path class="st1" d="M24.4,39.3L24.4,39.3c-0.8,0-1.5-0.9-1.5-1.7c0-7.5-4.6-8.3-5.1-8.4c-0.8-0.1-1.4-0.9-1.4-1.7
	c0.1-0.8,0.8-1.5,1.6-1.4c0.1,0,7.8,0.9,7.8,11.4C25.9,38.4,25.2,39.3,24.4,39.3"/>
<path class="st1" d="M31.3,38.3L31.3,38.3c-0.8,0-1.5-0.7-1.5-1.6c0-13.3-8.9-14.2-9-14.2c-0.8-0.1-1.4-0.8-1.4-1.6
	c0.1-0.8,0.8-1.5,1.6-1.4c0.1,0,11.8,1.1,11.7,17.2C32.8,37.5,32.1,38.3,31.3,38.3"/>
</svg>
