<?xml version="1.0" encoding="utf-8"?>
<!-- Generator: Adobe Illustrator 22.0.1, SVG Export Plug-In . SVG Version: 6.00 Build 0)  -->
<svg version="1.1" id="Isolation_Mode" xmlns="http://www.w3.org/2000/svg" xmlns:xlink="http://www.w3.org/1999/xlink" x="0px"
	 y="0px" viewBox="0 0 63.3 63" style="enable-background:new 0 0 63.3 63;" xml:space="preserve">
<style type="text/css">
	.st0{fill:#C9C9C9;}
	.st1{fill:#ED145B;}
</style>
<path class="st0" d="M31.7,63.1c-2.7,0-5-1.6-5.9-4.2l-1-2.7c-2-0.5-4-1.3-5.8-2.4l-2.5,1.2c-0.9,0.4-1.8,0.6-2.7,0.6
	c-2.1,0-4.1-1.1-5.3-3c-1.2-1.8-1.3-4-0.3-6l1.2-2.5c-1-1.8-1.8-3.8-2.4-5.7l-2.7-1c-2.6-0.9-4.2-3.3-4.2-6c0-2.7,1.6-4.9,4.1-5.8
	l2.6-1c0.5-2,1.2-3.8,2-5.5l-1-2.8c-0.9-1.9-0.7-4,0.4-5.8c1.2-1.9,3.4-3.1,5.6-3.1c0.9,0,1.9,0.2,2.7,0.6l2.9,1.4
	c1.7-0.9,3.4-1.6,5.2-2.1l1.1-3.1c0.9-2.5,3.2-4.2,5.9-4.2c2.7,0,5,1.6,5.9,4.2l1.2,3.2c1.7,0.5,3.4,1.2,5,2.1l3.1-1.5
	c0.9-0.4,1.8-0.6,2.7-0.6c2.1,0,4.1,1.1,5.3,3c1.2,1.8,1.3,4,0.3,6l-1.5,3.1c0.9,1.6,1.6,3.3,2.1,5l3.2,1.1c2.5,0.9,4.2,3.2,4.2,5.9
	c0,2.7-1.6,5-4.2,5.9L56,38.6c-0.5,1.8-1.2,3.6-2.1,5.2l1.4,2.9c0.9,2,0.8,4.2-0.3,6c-1.2,1.8-3.2,3-5.3,3h0c-0.9,0-1.8-0.2-2.7-0.6
	l-2.7-1.3c-1.7,1-3.6,1.8-5.5,2.3l-1,2.8C36.7,61.5,34.4,63.1,31.7,63.1 M19.2,50.7c0.3,0,0.5,0.1,0.8,0.2c2,1.2,4.1,2.1,6.4,2.6
	c0.5,0.1,0.9,0.5,1.1,1l1.2,3.4c0.6,1.6,2,2.2,3.1,2.2c1.1,0,2.5-0.6,3.1-2.2l1.3-3.5c0.2-0.5,0.6-0.8,1-1c2.2-0.6,4.3-1.4,6.2-2.6
	c0.4-0.3,1-0.3,1.4-0.1l3.5,1.6c1.5,0.7,3.3,0.2,4.2-1.2c0.4-0.6,0.8-1.7,0.2-3.1l-1.7-3.5c0,0-0.1-0.1-0.1-0.2
	c-0.2-0.4-0.1-1,0.1-1.4c1.1-1.8,1.9-3.8,2.4-5.9c0.1-0.5,0.4-0.9,0.9-1c0.1,0,0.2-0.1,0.3-0.1l3.7-1.3c1.6-0.6,2.2-2,2.2-3.1
	c0-1.1-0.6-2.5-2.2-3.1l-3.6-1.3c-0.1,0-0.3-0.1-0.4-0.2c-0.4-0.2-0.8-0.6-0.9-1c-0.5-2-1.3-3.9-2.4-5.7c-0.2-0.4-0.3-0.9-0.1-1.3
	c0.1-0.2,0.1-0.3,0.2-0.5l1.7-3.5c0.7-1.4,0.2-2.6-0.2-3.1c-0.9-1.4-2.7-2-4.2-1.2l-3.5,1.7c-0.2,0.1-0.3,0.1-0.5,0.2
	c-0.4,0.2-0.9,0.1-1.3-0.1c-1.8-1-3.7-1.8-5.6-2.4c-0.4-0.1-0.8-0.4-1-0.8c-0.1-0.2-0.1-0.3-0.2-0.4l-1.3-3.6
	c-0.6-1.6-2-2.2-3.1-2.2c-1.1,0-2.5,0.6-3.1,2.2l-1.3,3.6c0,0.1-0.1,0.2-0.1,0.3c-0.2,0.4-0.6,0.8-1.1,0.9c-2.1,0.5-4,1.3-5.9,2.4
	c-0.4,0.2-0.9,0.3-1.4,0.1c-0.1,0-0.1-0.1-0.2-0.1l-3.5-1.7c-1.6-0.8-3.6-0.1-4.6,1.4c-0.3,0.5-0.8,1.6-0.2,2.9c0,0,0,0.1,0.1,0.1
	l1.2,3.5c0.1,0.2,0.1,0.3,0.1,0.5c0,0.2-0.1,0.5-0.2,0.7c-0.9,1.8-1.7,4-2.3,6.3c-0.1,0.5-0.5,0.9-0.9,1l-3.3,1.3
	c-1.4,0.5-2.1,1.6-2.1,3c0,1.1,0.6,2.6,2.2,3.1l3.5,1.2c0.5,0.2,0.8,0.6,1,1.1c0.5,2.2,1.4,4.4,2.6,6.4c0.3,0.4,0.3,1,0.1,1.4
	l-1.5,3.3c-0.7,1.4-0.2,2.6,0.2,3.1c0.9,1.4,2.7,2,4.2,1.2l3.3-1.5C18.7,50.8,19,50.7,19.2,50.7"/>
<path class="st1" d="M31.7,44.6c-6.9,0-12.6-5.6-12.6-12.6c0-6.9,5.6-12.6,12.6-12.6c6.9,0,12.6,5.6,12.6,12.6
	C44.2,39,38.6,44.6,31.7,44.6 M31.7,22.5c-5.3,0-9.6,4.3-9.6,9.6c0,5.3,4.3,9.6,9.6,9.6c5.3,0,9.6-4.3,9.6-9.6
	C41.2,26.8,36.9,22.5,31.7,22.5"/>
<path class="st0" d="M31.7,51.5c-10.7,0-19.4-8.7-19.4-19.4c0-10.7,8.7-19.4,19.4-19.4c10.7,0,19.4,8.7,19.4,19.4
	C51.1,42.8,42.4,51.5,31.7,51.5 M31.7,15.6c-9.1,0-16.4,7.4-16.4,16.4c0,9.1,7.4,16.4,16.4,16.4c9.1,0,16.4-7.4,16.4-16.4
	C48.1,23,40.7,15.6,31.7,15.6"/>
</svg>
