<?xml version="1.0" encoding="utf-8"?>
<!-- Generator: Adobe Illustrator 22.0.1, SVG Export Plug-In . SVG Version: 6.00 Build 0)  -->
<svg version="1.1" id="Isolation_Mode" xmlns="http://www.w3.org/2000/svg" xmlns:xlink="http://www.w3.org/1999/xlink" x="0px"
	 y="0px" viewBox="0 0 61.5 62.9" style="enable-background:new 0 0 61.5 62.9;" xml:space="preserve">
<style type="text/css">
	.st0{fill:#C9C9C9;}
	.st1{fill:#ED145B;}
</style>
<path class="st0" d="M37.3,44.7c-0.1,0-0.2,0-0.2,0c-0.6-0.1-1-0.5-1.2-1l-4.1-13.1l-13.1-4.1c-0.5-0.2-0.9-0.6-1-1.2
	c-0.1-0.6,0.1-1.1,0.6-1.5l11.2-7.9L29.3,2.2c0-0.6,0.3-1.1,0.8-1.4c0.5-0.3,1.1-0.2,1.6,0.1l11,8.2l13-4.4c0.5-0.2,1.1,0,1.5,0.4
	c0.4,0.4,0.5,1,0.4,1.5l-4.4,13l8.2,11c0.3,0.5,0.4,1.1,0.1,1.6c-0.3,0.5-0.8,0.8-1.4,0.8l-13.7-0.2L38.5,44
	C38.2,44.4,37.7,44.7,37.3,44.7 M22.5,24.5l10.9,3.4c0.5,0.1,0.8,0.5,1,1l3.4,10.9l6.6-9.4c0.3-0.4,0.7-0.6,1.2-0.6L57.1,30
	l-6.9-9.2c-0.3-0.4-0.4-0.9-0.2-1.4l3.7-10.8l-10.9,3.7c-0.5,0.2-1,0.1-1.4-0.2l-9.2-6.9l0.1,11.5c0,0.5-0.2,1-0.6,1.2L22.5,24.5z"
	/>
<path class="st0" d="M3,62.9c-0.8,0-1.5-0.3-2.1-0.9c-1.2-1.2-1.2-3.1,0-4.2l21.3-21.3c1.2-1.2,3.1-1.2,4.2,0c1.2,1.2,1.2,3.1,0,4.2
	L5.1,62C4.6,62.6,3.8,62.9,3,62.9"/>
<path class="st1" d="M60.9,22c-1,1-2.7,1-3.8,0c-1-1-1-2.7,0-3.8c1-1,2.7-1,3.8,0C61.9,19.2,61.9,20.9,60.9,22"/>
<path class="st1" d="M43.4,4.5c-1,1-2.7,1-3.8,0c-1-1-1-2.7,0-3.8c1-1,2.7-1,3.8,0C44.4,1.7,44.4,3.4,43.4,4.5"/>
<path class="st1" d="M52.6,40.5c-1,1-2.7,1-3.8,0c-1-1-1-2.7,0-3.8c1-1,2.7-1,3.8,0C53.7,37.8,53.7,39.5,52.6,40.5"/>
<path class="st1" d="M25.9,13.8c-1,1-2.7,1-3.8,0c-1-1-1-2.7,0-3.8c1-1,2.7-1,3.8,0C26.9,11,26.9,12.7,25.9,13.8"/>
</svg>
